cdrecord: Insufficient 'file read' privileges. You will not be able to open all needed devices.
cdrecord: Insufficient 'file write' privileges. You will not be able to open all needed devices.
cdrecord: Insufficient 'device' privileges. You may not be able to send all needed SCSI commands, this my cause various unexplainable problems.
cdrecord: Insufficient 'memlock' privileges. You may get buffer underruns.
cdrecord: Insufficient 'priocntl' privileges. You may get buffer underruns.
cdrecord: Insufficient 'network' privileges. You will not be able to do remote SCSI.
scsidev: '1,0,0'
scsibus: 1 target: 0 lun: 0
Using libscg transport code version 'schily-scsi-mac-iokit.c-1.17'
SCSI buffer size: 32768
cdrecord: Warning: Cannot read drive buffer.
cdrecord: Warning: The DMA speed test has been skipped.
Cdrecord-ProDVD-ProBD-Clone 3.02a09 (--) Copyright (C) 1995-2016 Joerg Schilling
Using remote (pipe) mode for interactive i/o.
TOC Type: 1 = CD-ROM
Using libscg version 'schily-0.9'.
atapi: 0
Device type    : Removable CD-ROM
Version        : 0
Response Format: 2
Capabilities   : 
Vendor_info    : '_NEC    '
Identifikation : 'DVD+-RW ND-6500A'
Revision       : '2.81'
Device seems to be: Generic mmc2 DVD-R/DVD-RW/DVD-RAM.
Current: CD-R
Profile: DVD+R/DL 
Profile: DVD+R 
Profile: DVD+RW 
Profile: DVD-RW sequential recording 
Profile: DVD-RW restricted overwrite 
Profile: DVD-R sequential recording 
Profile: DVD-ROM 
Profile: CD-RW 
Profile: CD-R (current)
Profile: CD-ROM (current)
Feature: 'Profile List' (current) (persistent)
Feature: 'Core' (current) (persistent)
Feature: 'Morphing' (current) (persistent)
Feature: 'Removable Medium' (current) (persistent)
Feature: 'Write Protect'  
Feature: 'Random Readable' (current) 
Feature: 'Multi Read' (current) 
Feature: 'CD Read' (current) 
Feature: 'DVD Read'  
Feature: 'Random Writable'  
Feature: 'Incremental Streaming Writable'  
Feature: 'Formattable'  
Feature: 'Restricted Overwrite'  
Feature: 'DVD+RW'  
Feature: 'DVD+R'  
Feature: 'Rigid Restricted Overwrite'  
Feature: 'CD Track at Once'  
Feature: 'CD Mastering'  
Feature: 'DVD-R/-RW Write'  
Feature: 'DVD+R/DL Read'  
Feature: 'Power Management' (current) (persistent)
Feature: 'CD Audio analog play' (current) 
Feature: 'Time-out' (current) (persistent)
Feature: 'DVD-CSS'  
Feature: 'Real Time Streaming' (current) 
Feature: 'Logical Unit Serial Number' (current) (persistent)	Serial: 'CH53J9150n  '
Feature: 'Disk Control Blocks'  
Feature: 'DVD CPRM'  
Drive current speed: 8
Drive default speed: 24
Drive max speed    : 24
Selected speed     : 24
Using generic SCSI-3/mmc   CD-R/CD-RW driver (mmc_cdr).
Driver flags   : MMC-3 SWABAUDIO BURNFREE 
Supported modes: TAO PACKET SAO SAO/R96R RAW/R96R
Drive buf size : 1343488 = 1312 KB
 01 00 00 01 00 00 00 00
 01 AA 01 01 00 00 00 00
 01 00 A0 00 00 00 00 01 00 00 00 00
 01 00 A1 00 00 00 00 00 00 00 00 00
 01 00 A2 00 00 00 00 00 00 00 00 00
Track 1 start -150
Current Secsize: 2048
ATIP info from disk:
  Indicated writing power: 4
Disk Is not unrestricted
Disk Is not erasable
  Disk sub type: Medium Type A, low Beta category (A-) (2)
  ATIP start of lead in:  -12508 (97:15/17)
  ATIP start of lead out: 359845 (79:59/70)
Disk type:    Short strategy type (Phthalocyanine or similar)
Manuf. index: 22
Manufacturer: Ritek Co.

    Capacity  Blklen/Sparesz.  Format-type  Type
      283084             2048         0x00  Formatted Media
first: 1 last 18
track:   1 lba:         0 (        0) 00:02:00 adr: 1 control: 0 mode: -1
track:   2 lba:     15660 (    62640) 03:30:60 adr: 1 control: 0 mode: -1
track:   3 lba:     24500 (    98000) 05:28:50 adr: 1 control: 0 mode: -1
track:   4 lba:     31668 (   126672) 07:04:18 adr: 1 control: 0 mode: -1
track:   5 lba:     51765 (   207060) 11:32:15 adr: 1 control: 0 mode: -1
track:   6 lba:     62802 (   251208) 13:59:27 adr: 1 control: 0 mode: -1
track:   7 lba:     71208 (   284832) 15:51:33 adr: 1 control: 0 mode: -1
track:   8 lba:     85632 (   342528) 19:03:57 adr: 1 control: 0 mode: -1
track:   9 lba:     94756 (   379024) 21:05:31 adr: 1 control: 0 mode: -1
track:  10 lba:    112342 (   449368) 24:59:67 adr: 1 control: 0 mode: -1
track:  11 lba:    134161 (   536644) 29:50:61 adr: 1 control: 0 mode: -1
track:  12 lba:    149201 (   596804) 33:11:26 adr: 1 control: 0 mode: -1
track:  13 lba:    169189 (   676756) 37:37:64 adr: 1 control: 0 mode: -1
track:  14 lba:    191123 (   764492) 42:30:23 adr: 1 control: 0 mode: -1
track:  15 lba:    211677 (   846708) 47:04:27 adr: 1 control: 0 mode: -1
track:  16 lba:    228534 (   914136) 50:49:09 adr: 1 control: 0 mode: -1
track:  17 lba:    248905 (   995620) 55:20:55 adr: 1 control: 0 mode: -1
track:  18 lba:    265024 (  1060096) 58:55:49 adr: 1 control: 0 mode: -1
track:lout lba:    283084 (  1132336) 62:56:34 adr: 1 control: 0 mode: -1
CD-Text len: 526
